<svg aria-hidden="true" style="position: absolute; width: 0; height: 0; overflow: hidden;" version="1.1" xmlns="http://www.w3.org/2000/svg" xmlns:xlink="http://www.w3.org/1999/xlink">
<defs>
<symbol id="icon-group6" viewBox="0 0 32 32">
<path d="M16.136 15.626c-0.129-0.169-0.206-0.383-0.206-0.616 0-0.023 0.001-0.046 0.002-0.068l-0 0.003v-0.987c0-0.272 0.068-0.511 0.204-0.681 0.136-0.136 0.374-0.238 0.681-0.238 0.34 0 0.579 0.068 0.681 0.204 0.17 0.17 0.238 0.374 0.204 0.579v0.238h-0.545v-0.443c0-0.068-0.068-0.102-0.102-0.136-0.056-0.043-0.127-0.068-0.204-0.068v0c-0.077 0-0.148 0.026-0.205 0.069l0.001-0.001c-0.068 0-0.102 0.068-0.102 0.136v1.43l0.034 0.34 0.136 0.068 0.136 0.034c0.068 0 0.136 0 0.204-0.068l0.068-0.136v-0.477h0.579v0.238c0 0.204-0.034 0.409-0.17 0.613-0.136 0.136-0.34 0.204-0.681 0.204s-0.579-0.068-0.681-0.238zM18.485 15.626c-0.17-0.136-0.238-0.34-0.238-0.681v-1.021c0-0.272 0.068-0.511 0.238-0.681 0.136-0.102 0.34-0.204 0.681-0.204s0.579 0.102 0.715 0.238c0.136 0.136 0.204 0.34 0.204 0.681v1.021c0 0.272-0.068 0.511-0.204 0.681-0.136 0.136-0.374 0.204-0.681 0.204-0.34 0-0.579-0.068-0.715-0.238zM19.438 15.387l0.068-0.306v-1.26c0-0.102 0-0.204-0.068-0.306l-0.102-0.068c-0.026-0.007-0.055-0.011-0.085-0.011s-0.060 0.004-0.087 0.011l0.002-0.001c-0.020-0.004-0.044-0.007-0.068-0.007s-0.048 0.002-0.070 0.007l0.002-0-0.102 0.068c-0.068 0.102-0.102 0.204-0.068 0.306v1.26c0 0.102 0 0.204 0.068 0.34l0.102 0.068c0.045 0.019 0.098 0.030 0.153 0.030s0.108-0.011 0.156-0.031l-0.003 0.001 0.102-0.102zM20.766 13.106h0.613l0.443 1.872 0.477-1.906h0.579l0.034 2.757h-0.409l-0.068-1.906-0.443 1.906h-0.34l-0.443-1.906-0.102 1.906h-0.443l0.068-2.723zM23.591 13.106h0.953c0.545 0 0.817 0.238 0.817 0.749s-0.306 0.749-0.851 0.749h-0.34v1.226h-0.579v-2.723zM24.409 14.264h0.17l0.136-0.102 0.102-0.306-0.034-0.238-0.034-0.068-0.102-0.068c-0.068-0.034-0.17-0.068-0.238-0.034h-0.238v0.817h0.238zM26.213 13.106h0.579l0.681 2.723h-0.579l-0.102-0.647h-0.579l-0.136 0.647h-0.545l0.681-2.723zM26.723 14.877l-0.238-1.157-0.204 1.157h0.443zM27.949 13.106h0.409l0.783 1.532v-1.532h0.477v2.723h-0.374l-0.783-1.634v1.634h-0.545v-2.723zM30.74 14.809l-0.647-1.702h0.545l0.409 1.055 0.34-1.089h0.545l-0.647 1.702v1.055h-0.545v-1.021zM17.021 17.021v0.17h-0.443v1.089h-0.238v-1.089h-0.477v-0.17h1.157zM18.519 18.281h-0.238l-0.136-0.34h-0.647l-0.136 0.34h-0.204l0.579-1.26h0.204l0.579 1.26zM17.566 17.872h0.545l-0.238-0.511-0.034-0.136v0.068l-0.034 0.068-0.238 0.511zM19.506 18.179h0.102c0.073-0.001 0.143-0.013 0.209-0.035l-0.005 0.001 0.068-0.034v-0.306h-0.272v-0.102h0.443v0.477c-0.107 0.070-0.233 0.119-0.37 0.136l-0.004 0h-0.17c-0.102 0-0.204 0-0.306-0.068-0.090-0.020-0.17-0.055-0.241-0.104l0.002 0.002-0.136-0.204-0.068-0.272c0-0.102 0-0.17 0.068-0.272 0-0.068 0.068-0.136 0.136-0.204 0.068-0.034 0.136-0.102 0.238-0.102 0.11-0.046 0.239-0.073 0.374-0.073 0.036 0 0.072 0.002 0.107 0.006l-0.004-0c0.090 0.022 0.17 0.058 0.241 0.104l-0.003-0.002 0.102 0.068-0.034 0.068h-0.136l-0.102-0.068c-0.069-0.035-0.15-0.059-0.235-0.068l-0.003-0c-0.088 0.009-0.169 0.033-0.242 0.070l0.004-0.002-0.17 0.068-0.102 0.17v0.443c0 0.068 0.068 0.136 0.136 0.17 0.091 0.085 0.213 0.137 0.348 0.137 0.009 0 0.019-0 0.028-0.001l-0.001 0zM21.345 18.145h0.647v0.136h-0.817v-1.26h0.17v1.123zM22.638 18.281h-0.17v-1.26h0.204v1.26zM23.387 17.021v0.034l0.885 0.953v-0.987h0.17v1.26h-0.17l-0.851-0.953v0.987h-0.17v-1.26h0.102zM25.872 17.021v0.136h-0.681v0.443h0.545v0.136h-0.545v0.409h0.681v0.136h-0.885v-1.26h0.885zM5.174 9.26l8.783 2.145v7.489l-8.783-2.145v-7.489zM4.596 8.579v8.613l9.906 2.383v-8.511l-9.872-2.485z"></path>
<path d="M9.906 23.557l-9.906-2.417v-8.579l9.906 2.451v8.511z"></path>
<path d="M4.766 9.157l8.647 2.111-3.677 3.2-8.647-2.145 3.677-3.166zM4.596 8.613l-4.596 3.949 9.906 2.451 4.596-3.983-9.872-2.417zM10.451 23.081l4.085-3.506-4.085-0.987v4.494z"></path>
</symbol>
<symbol id="icon-group5" viewBox="0 0 32 32">
<path d="M2.438 23.721c0.102 0.152 0.152 0.356 0.152 0.508l-0.051 0.356-0.203 0.254c-0.254 0.203-0.559 0.254-0.864 0.254h-1.473v-3.149h1.422c0.305 0 0.61 0.051 0.813 0.203l0.203 0.254 0.102 0.356c0 0.152-0.051 0.356-0.203 0.508l-0.406 0.203c0.203 0 0.356 0.152 0.508 0.254zM0.711 23.264h0.61c0.102 0 0.254 0 0.356-0.102l0.102-0.152 0.051-0.152v-0.152l-0.152-0.152c-0.102-0.102-0.254-0.102-0.406-0.102h-0.559v0.813zM1.727 24.483l0.152-0.152v-0.356l-0.102-0.152c-0.152-0.102-0.305-0.102-0.457-0.102h-0.61v0.863h0.61c0.152 0 0.305 0 0.457-0.102zM5.384 25.092l-0.813-1.219h-0.305v1.219h-0.711v-3.149h1.321c0.356 0 0.66 0.102 0.914 0.254 0.203 0.203 0.305 0.406 0.305 0.66s-0.051 0.508-0.203 0.66c-0.152 0.152-0.406 0.254-0.61 0.305l0.864 1.27h-0.762zM4.267 23.416h0.559c0.406 0 0.61-0.152 0.61-0.457l-0.051-0.203c-0.026-0.059-0.060-0.109-0.102-0.152l0 0-0.457-0.152h-0.559v1.016zM9.143 24.483h-1.371l-0.254 0.61h-0.711l1.27-3.098h0.762l1.27 3.098h-0.711l-0.254-0.61zM8.94 23.975l-0.508-1.321-0.508 1.321h1.016zM13.867 25.092h-0.66l-1.524-2.133v2.133h-0.711v-3.149h0.66l1.524 2.133v-2.133h0.711v3.149zM17.778 24.381c-0.102 0.203-0.356 0.406-0.61 0.508-0.305 0.152-0.61 0.203-0.965 0.203h-1.219v-3.149h1.27c0.356 0 0.66 0.051 1.016 0.203 0.203 0.102 0.457 0.305 0.559 0.508 0.137 0.242 0.217 0.53 0.217 0.838s-0.080 0.597-0.221 0.847l0.004-0.009zM17.016 24.279c0.186-0.199 0.3-0.467 0.3-0.762s-0.114-0.563-0.301-0.763l0.001 0.001c-0.254-0.203-0.508-0.305-0.863-0.254h-0.508v2.032h0.508c0.305 0 0.61-0.102 0.863-0.254zM9.6 4.47s8.838 3.048 8.635 7.467v7.517s-8.838-3.048-8.635-7.517v-7.467zM26.159 17.676c1.676-1.016 3.556-1.676 5.587-1.879v-2.337c-2.31 0.816-4.22 2.284-5.563 4.18l-0.024 0.035z"></path>
<path d="M25.143 18.387c1.371-2.54 3.759-4.47 6.603-5.435v-6.756s-12.597 4.368-12.343 10.667v10.667l1.473-0.559v-1.016c0.305-2.946 1.829-5.638 4.267-7.568z"></path>
<path d="M23.924 22.349c0.102-0.711 0.203-1.473 0.457-2.184-1.598 1.685-2.607 3.943-2.692 6.434l-0 0.016 2.438-1.168c-0.203-1.016-0.305-2.032-0.203-3.048zM24.432 22.349c-0.027 0.273-0.043 0.591-0.043 0.912 0 0.684 0.071 1.352 0.207 1.996l-0.011-0.063c3.454-1.879 7.314-4.825 7.162-8.33v-0.305c-2.438 0.254-4.775 1.219-6.552 2.794-0.406 1.016-0.66 2.032-0.762 3.048z"></path>
</symbol>
<symbol id="icon-group4" viewBox="0 0 32 32">
<path fill="#2196f3" style="fill: var(--color2, #2196f3)" d="M4.932 13.026c-0.904 0-1.619 0.64-1.619 1.468 0 0.791 0.753 1.431 1.619 1.431 0.904 0 1.656-0.64 1.656-1.431 0-0.828-0.753-1.468-1.656-1.468zM17.016 12.574c0-1.129-0.489-2.184-1.393-3.012-0.866-0.715-2.071-1.167-3.351-1.167-1.242 0-2.447 0.452-3.351 1.242-0.866 0.753-1.355 1.882-1.355 2.974v6.136s9.412-0.941 9.412-6.136zM0 20.706c0 0.791 0.376 1.506 0.979 2.071 0.612 0.533 1.415 0.86 2.295 0.866h0.001c0.904 0 1.732-0.301 2.334-0.866 0.579-0.495 0.952-1.218 0.979-2.028l0-0.005v-4.292s-6.588 0.64-6.588 4.254zM3.275 21.459c-0.151 0-0.339 0-0.452-0.113-0.151-0.075-0.264-0.188-0.339-0.339-0.038-0.113-0.075-0.301-0.038-0.414 0-0.151 0.113-0.301 0.226-0.376 0.113-0.151 0.301-0.226 0.452-0.226h0.489c0.151 0.075 0.301 0.188 0.376 0.301 0.099 0.122 0.159 0.279 0.159 0.45 0 0.209-0.090 0.398-0.234 0.529l-0.001 0-0.301 0.151-0.339 0.075zM9.939 21.082h-0.64v0.64h-0.264v-1.581h1.016v0.301h-0.715v0.376h0.64v0.301zM11.52 20.969c0 0.151 0 0.301-0.075 0.376-0.103 0.224-0.325 0.377-0.583 0.377-0.007 0-0.013-0-0.020-0l0.001 0c-0.113 0-0.226 0-0.376-0.075l-0.226-0.264-0.075-0.414v-0.075c0-0.151 0-0.301 0.075-0.414 0.103-0.224 0.325-0.377 0.583-0.377 0.007 0 0.013 0 0.020 0l-0.001-0c0.151 0 0.264 0 0.376 0.075 0.075 0.075 0.188 0.188 0.226 0.301 0.075 0.113 0.075 0.264 0.075 0.376v0.113zM11.219 20.894c0-0.188-0.038-0.301-0.113-0.376-0.053-0.091-0.15-0.151-0.261-0.151-0.001 0-0.002 0-0.003 0h0c-0.113 0-0.188 0.038-0.264 0.151l-0.075 0.376v0.075c0 0.151 0 0.264 0.075 0.376 0.075 0.075 0.151 0.113 0.264 0.113s0.226 0 0.264-0.113c0.075-0.075 0.075-0.226 0.113-0.376v-0.075zM12.612 21.271s0-0.075-0.075-0.113l-0.226-0.113c-0.113 0-0.226-0.075-0.264-0.113-0.188-0.075-0.301-0.226-0.301-0.376l0.075-0.226c0.075-0.075 0.113-0.151 0.226-0.188l0.301-0.038 0.301 0.038 0.226 0.188 0.075 0.264h-0.339c0-0.075 0-0.113-0.075-0.188-0.043-0.025-0.095-0.040-0.15-0.040-0.013 0-0.027 0.001-0.040 0.003l0.002-0-0.188 0.038-0.075 0.151c0 0.038 0 0.075 0.075 0.113l0.226 0.113c0.188 0.038 0.339 0.113 0.414 0.188 0.113 0.113 0.151 0.188 0.151 0.339s-0.075 0.226-0.151 0.339c-0.113 0.075-0.264 0.113-0.452 0.113-0.113 0-0.226 0-0.339-0.075l-0.226-0.188-0.075-0.264h0.339c0 0.151 0.113 0.264 0.301 0.264 0.075 0 0.151 0 0.188-0.075l0.075-0.113zM14.381 20.405h-0.489v1.318h-0.339v-1.318h-0.489v-0.301h1.318v0.301zM15.511 21.045h-0.602v0.414h0.753v0.264h-1.129v-1.581h1.129v0.301h-0.753v0.376h0.64v0.264zM16.414 21.12h-0.226v0.602h-0.301v-1.581h0.565c0.226 0 0.376 0.075 0.452 0.151 0.113 0.075 0.151 0.188 0.151 0.376 0 0.075 0 0.188-0.075 0.264 0 0.075-0.113 0.113-0.188 0.151l0.339 0.678h-0.376l-0.301-0.602zM16.188 20.894h0.301l0.188-0.038 0.038-0.188-0.038-0.188-0.226-0.038h-0.264v0.452zM18.221 21.195v0.565h-0.376v-1.619h0.678l0.301 0.075 0.226 0.188 0.075 0.301c0 0.151-0.075 0.264-0.188 0.376-0.113 0.075-0.264 0.113-0.452 0.113h-0.264zM18.221 20.932h0.301c0.075 0 0.151 0 0.188-0.075l0.075-0.151c0-0.075 0-0.151-0.075-0.188-0.047-0.047-0.113-0.075-0.184-0.075-0.001 0-0.003 0-0.004 0h-0.301v0.452zM20.292 21.082h-0.64v0.414h0.753v0.264h-1.054v-1.619h0.979v0.301h-0.753v0.376h0.64v0.264zM21.835 20.442h-0.489v1.318h-0.339v-1.318h-0.489v-0.301h1.318v0.301zM22.965 21.082h-0.602v0.414h0.753v0.264h-1.092v-1.619h1.092v0.301h-0.753v0.376h0.602v0.264zM23.906 21.158h-0.264v0.602h-0.376v-1.619h0.64c0.188 0 0.339 0.075 0.414 0.151 0.113 0.075 0.151 0.188 0.151 0.376l-0.038 0.264-0.226 0.151 0.376 0.678h-0.376l-0.301-0.602zM23.642 20.894h0.264l0.188-0.038 0.075-0.188c0-0.075 0-0.151-0.075-0.188l-0.188-0.038h-0.264v0.452zM25.562 21.346l-0.038-0.151-0.264-0.113c-0.113 0-0.188-0.075-0.264-0.113-0.188-0.075-0.264-0.226-0.264-0.376 0-0.113 0-0.188 0.075-0.226 0-0.075 0.113-0.151 0.188-0.188l0.301-0.038 0.339 0.038 0.188 0.188 0.075 0.264h-0.339c0-0.075 0-0.113-0.075-0.188-0.043-0.025-0.095-0.040-0.15-0.040-0.013 0-0.027 0.001-0.040 0.003l0.002-0-0.188 0.038-0.075 0.151 0.113 0.113 0.226 0.113c0.188 0.038 0.301 0.113 0.376 0.188 0.113 0.113 0.151 0.188 0.151 0.339s-0.038 0.226-0.151 0.339c-0.113 0.075-0.264 0.113-0.414 0.113s-0.264 0-0.376-0.075l-0.226-0.188-0.075-0.264h0.376c0 0.151 0.075 0.264 0.301 0.264 0.075 0 0.113 0 0.188-0.075l0.038-0.113z"></path>
</symbol>
<symbol id="icon-group3" viewBox="0 0 32 32">
<path d="M5.262 30.293l0.213 0.142-0.427 0.284-0.64 0.142c-0.213 0-0.356 0-0.569-0.142l-0.427-0.213-0.284-0.427c-0.066-0.158-0.104-0.341-0.104-0.533s0.038-0.376 0.107-0.543l-0.003 0.009 0.284-0.427c0.142-0.071 0.284-0.213 0.498-0.213 0.17-0.057 0.366-0.090 0.569-0.090s0.399 0.033 0.582 0.093l-0.013-0.004 0.427 0.213-0.142 0.142h-0.213l-0.071-0.071c-0.159-0.090-0.349-0.142-0.551-0.142-0.006 0-0.013 0-0.019 0h0.001l-0.427 0.071-0.356 0.213c0 0.142-0.142 0.213-0.213 0.356v0.853l0.213 0.284 0.356 0.213h0.64c0.192-0.021 0.363-0.098 0.499-0.214l-0.001 0.001h0.071zM9.742 29.511l-0.071 0.569-0.356 0.427-0.427 0.213c-0.356 0.142-0.782 0.142-1.209 0-0.163-0.050-0.305-0.123-0.431-0.216l0.004 0.003-0.284-0.427c-0.066-0.158-0.104-0.341-0.104-0.533s0.038-0.376 0.107-0.543l-0.003 0.009c0-0.142 0.142-0.284 0.284-0.427l0.427-0.213c0.427-0.142 0.853-0.142 1.209 0l0.427 0.213c0.263 0.223 0.429 0.554 0.429 0.924 0 0.025-0.001 0.050-0.002 0.075l0-0.003zM9.316 29.511v-0.356c-0.085-0.273-0.296-0.484-0.563-0.567l-0.006-0.002c-0.128-0.042-0.274-0.066-0.427-0.066s-0.299 0.024-0.437 0.068l0.010-0.003-0.356 0.213-0.213 0.356v0.782c0.085 0.273 0.296 0.484 0.563 0.567l0.006 0.002h0.853l0.284-0.213c0.142-0.071 0.213-0.213 0.213-0.356l0.071-0.356zM12.8 30.009v0.071l0.071-0.071v-0.142l1.067-1.564h0.498v2.489h-0.356v-1.991l-0.996 1.564-0.142 0.071h-0.142l-1.209-1.636v2.062h-0.356v-2.489h0.427l0.996 1.564 0.071 0.142zM16.498 29.867v0.924h-0.356v-2.489h1.351c0.142 0 0.213 0.142 0.356 0.213l0.142 0.213 0.071 0.356v0.284l-0.284 0.284-0.284 0.142-0.498 0.071h-0.498zM16.498 29.582h0.782l0.213-0.142 0.142-0.142v-0.498c0-0.071 0-0.142-0.142-0.213l-0.498-0.142h-0.498v1.067zM21.76 30.791h-0.427l-0.284-0.711h-1.351l-0.284 0.711h-0.427l1.138-2.489h0.427l1.209 2.489zM19.84 29.867h1.067l-0.427-0.996-0.142-0.284v0.284l-0.498 0.996zM23.467 28.302l1.707 1.92v-1.92h0.356v2.489h-0.284l-1.778-1.991v1.92h-0.356v-2.489h0.284zM28.373 29.796v0.996h-0.356v-0.996l-1.067-1.493h0.427l0.711 1.067c0.025 0.058 0.050 0.129 0.069 0.202l0.002 0.011 0.071-0.142 0.071-0.071 0.711-0.996v-0.071h0.427l-0.996 1.493zM12.587 24.036h0.569c2.579-0.997 4.723-2.638 6.303-4.729l0.026-0.036c1.564-2.133 2.347-4.551 2.276-7.111l-2.844-2.418c0.175 0.793 0.275 1.704 0.275 2.639 0 1.904-0.416 3.71-1.161 5.334l0.033-0.080c-1.211 2.655-3.087 4.829-5.419 6.365l-0.056 0.035z"></path>
<path d="M11.591 23.822v0.071c2.702-1.636 4.693-3.911 5.831-6.542s1.28-5.547 0.498-8.249l-4.053-3.556c1.283 2.189 2.040 4.821 2.040 7.63 0 4.14-1.646 7.896-4.319 10.65l0.004-0.004zM25.529 15.147c-0.78 2.933-2.495 5.387-4.8 7.086l-0.035 0.025-2.347 1.422c2.077-0.54 3.888-1.473 5.431-2.723l-0.027 0.021c1.422-1.209 2.702-2.702 3.413-4.338l-1.636-1.422z"></path>
<path d="M24.889 14.791l-2.418-2.133c0 2.418-0.782 4.693-2.204 6.684s-3.413 3.627-5.831 4.764l1.636-0.071c2.204-0.782 4.196-2.133 5.689-3.698 1.45-1.497 2.517-3.372 3.040-5.463l0.018-0.083zM11.947 4.053l-2.844-2.489c-2.528 0.825-4.652 2.306-6.239 4.243l-0.019 0.023c-1.449 1.795-2.332 4.099-2.347 6.61l-0 0.003c0 2.631 0.996 5.12 2.844 7.111 1.849 2.133 4.48 3.556 7.324 4.267 2.661-2.716 4.304-6.44 4.304-10.547 0-3.457-1.164-6.643-3.121-9.186l0.026 0.035zM31.36 14.364c0-3.058-1.422-6.044-3.911-8.178-2.531-2.174-5.848-3.498-9.473-3.498-1.701 0-3.334 0.291-4.851 0.827l0.102-0.031 17.28 15.076c0.569-1.351 0.853-2.773 0.853-4.196z"></path>
</symbol>
<symbol id="icon-group2" viewBox="0 0 32 32">
<path d="M14.215 1.846h-0.677c-0.119-0.003-0.259-0.005-0.4-0.005s-0.281 0.002-0.421 0.006l0.021-0c-2.277 0-4.492 0.615-6.523 1.538l-0.308 0.123v13.723l0.615-0.246c2.011-0.683 4.33-1.106 6.739-1.169l0.031-0.001v1.846h-0.677c-3.131 0.148-6.034 0.997-8.597 2.391l0.105-0.052v-17.477c2.642-1.58 5.826-2.516 9.229-2.523h0.31c1.163 0.052 2.26 0.206 3.322 0.455l-0.122-0.024v1.723c-0.738-0.185-1.477-0.246-2.215-0.308h-0.492zM17.292 3.631h1.231c3.41-0.009 6.611-0.898 9.391-2.45l-0.098 0.050v17.231c-2.622 1.533-5.773 2.438-9.136 2.438-1.253 0-2.477-0.126-3.659-0.365l0.118 0.020v-17.231c0.642 0.149 1.4 0.259 2.176 0.306l0.040 0.002zM26.031 3.754l-0.615 0.185-1.723 0.554c-1.553 0.409-3.337 0.644-5.175 0.644-0.388 0-0.773-0.010-1.155-0.031l0.053 0.002h-0.492v13.969h0.369l1.231 0.123c2.669-0.005 5.188-0.641 7.418-1.766l-0.095 0.043 0.246-0.123v-13.6z"></path>
<path d="M5.354 25.969c-0.161-0.15-0.377-0.243-0.615-0.246h-0.431c-0.362 0.13-0.617 0.471-0.617 0.871 0 0.018 0.001 0.037 0.002 0.055l-0-0.003v2.338c0 0.185 0 0.369 0.123 0.492 0 0.123 0.123 0.246 0.185 0.308l0.369 0.185h0.677c0.364-0.15 0.615-0.502 0.615-0.913 0-0.004-0-0.007-0-0.011v0.001-0.246h-0.615v0.369l-0.246 0.246h-0.123c-0.017 0.003-0.037 0.005-0.058 0.005-0.103 0-0.194-0.050-0.25-0.128l-0.001-0.001-0.062-0.369v-2.462c0.048-0.11 0.157-0.186 0.282-0.186 0.009 0 0.018 0 0.026 0.001l-0.001-0c0.111 0.014 0.203 0.085 0.245 0.183l0.001 0.002c0.123 0.062 0.123 0.185 0.123 0.308v0.185h0.615v-0.246c-0.008-0.287-0.123-0.546-0.308-0.739l0 0zM8.985 25.969c-0.188-0.151-0.429-0.243-0.692-0.243-0.127 0-0.248 0.021-0.362 0.060l0.008-0.002c-0.123 0-0.246 0.062-0.308 0.185l-0.246 0.308-0.062 0.431v2.277l0.062 0.431c0 0.123 0.123 0.246 0.246 0.308 0.062 0.123 0.185 0.185 0.308 0.185 0.11 0.043 0.237 0.067 0.369 0.067s0.26-0.025 0.376-0.070l-0.007 0.002c0.123 0 0.246-0.062 0.308-0.185 0.19-0.18 0.308-0.434 0.308-0.715 0-0.008-0-0.016-0-0.024l0 0.001v-2.277l-0.062-0.431c0-0.123-0.123-0.246-0.246-0.308zM8.738 28.923c0 0.002 0 0.004 0 0.006 0 0.117-0.047 0.224-0.123 0.302l0-0c-0.078 0.080-0.187 0.129-0.308 0.129s-0.229-0.049-0.308-0.129l-0-0c-0.076-0.078-0.123-0.184-0.123-0.302 0-0.002 0-0.004 0-0.006v0-2.277c0.025-0.074 0.068-0.136 0.123-0.184l0-0c0.078-0.080 0.187-0.129 0.308-0.129s0.229 0.049 0.308 0.129l0 0c0.076 0.078 0.123 0.184 0.123 0.302 0 0.002-0 0.004-0 0.006v-0 2.277zM13.785 29.969v-4.246h-0.615l-0.738 2.277-0.8-2.277h-0.615v4.246h0.615v-2.585l0.615 1.846h0.308l0.615-1.846v2.585h0.615zM17.231 26.031l-0.369-0.246h-1.354v4.185h0.615v-1.662h0.308c0.185 0 0.369 0 0.554-0.123l0.308-0.308 0.185-0.369c0.033-0.167 0.051-0.358 0.051-0.554s-0.019-0.387-0.054-0.573l0.003 0.019-0.246-0.369zM16.923 27.262l-0.062 0.308-0.185 0.123c-0.046 0.012-0.099 0.020-0.154 0.020s-0.108-0.007-0.158-0.020l0.004 0.001h-0.246v-1.415h0.308l0.246 0.062 0.185 0.185v0.8zM20.062 25.723h-0.492l-0.923 4.246h0.615l0.185-0.923h0.8l0.185 0.923h0.615l-0.985-4.246zM19.508 28.492l0.308-1.538 0.308 1.538h-0.615zM24 28.308l-0.985-2.585h-0.554v4.246h0.615v-2.523l0.923 2.523h0.615v-4.246h-0.615v2.585zM27.692 25.723l-0.492 1.662-0.554-1.662h-0.615l0.862 2.462v1.785h0.615v-1.846l0.8-2.4h-0.615zM3.692 31.138h0.308v0.862h0.185v-0.862h0.308v-0.123h-0.8v0.123zM6.154 31.015l-0.369 0.985h0.185l0.062-0.246h0.431l0.062 0.246h0.246l-0.431-0.985h-0.185zM6.154 31.631l0.062-0.431 0.185 0.369h-0.308zM8.615 31.631h0.185v0.123l-0.246 0.062c-0.006 0.001-0.013 0.001-0.021 0.001-0.063 0-0.12-0.024-0.164-0.063l0 0-0.123-0.246c0-0.246 0.123-0.369 0.308-0.369 0.018-0.007 0.040-0.011 0.062-0.011 0.102 0 0.185 0.083 0.185 0.185 0 0.004-0 0.007-0 0.011l0-0h0.185c0-0.246-0.185-0.369-0.431-0.369l-0.369 0.123c-0.082 0.088-0.132 0.206-0.132 0.336 0 0.034 0.003 0.066 0.010 0.098l-0.001-0.003c0 0.123 0 0.246 0.123 0.369 0.087 0.077 0.202 0.125 0.328 0.125 0.015 0 0.029-0.001 0.043-0.002l-0.002 0c0.185 0 0.308 0 0.431-0.185v-0.369h-0.431v0.185zM11.077 31.015h-0.246v0.985h0.677v-0.185h-0.431v-0.8zM13.108 31.015h-0.185v0.985h0.185v-0.985zM15.138 31.631l-0.369-0.615h-0.185v0.985h0.185v-0.615l0.369 0.615h0.185v-0.985h-0.185v0.615zM16.985 31.569h0.492v-0.185h-0.492v-0.246h0.554v-0.123h-0.738v0.985h0.738v-0.185h-0.554v-0.246zM21.538 31.385h-0.431v-0.369h-0.185v0.985h0.185v-0.431h0.369v0.431h0.185v-0.985h-0.123v0.369zM23.385 31.569h0.431v-0.185h-0.431v-0.246h0.554v-0.123h-0.738v0.985h0.738v-0.185h-0.554v-0.246zM25.846 31.569c0.185 0 0.246-0.123 0.246-0.308 0.001-0.006 0.001-0.013 0.001-0.021 0-0.063-0.024-0.12-0.063-0.164l0 0c-0.075-0.040-0.164-0.064-0.258-0.064-0.017 0-0.035 0.001-0.052 0.002l0.002-0h-0.431v0.985h0.246v-0.431h0.123l0.062 0.123 0.246 0.308h0.246l-0.123-0.185-0.246-0.246zM25.662 31.385h-0.123v-0.246h0.308c0.068 0 0.123 0.055 0.123 0.123s-0.055 0.123-0.123 0.123v0c-0.028 0.004-0.060 0.007-0.092 0.007s-0.065-0.003-0.096-0.007l0.003 0zM27.754 31.569h0.492v-0.185h-0.492v-0.246h0.554v-0.123h-0.738v0.985h0.738v-0.185h-0.554v-0.246z"></path>
</symbol>
<symbol id="icon-group1" viewBox="0 0 32 32">
<path d="M6.128 0l4.766 4.494h-8.851v21.923h23.149v-8.374l4.766 4.494v-22.536h-23.83zM24.987 17.498l-13.549-12.732h13.549v12.8zM20.766 23.217h-15.047v-14.706h1.021v13.685h14.026v1.021zM9.26 29.345l-0.545 1.157-0.545-1.226h-0.477l0.817 1.498v0.953h0.409v-0.953l0.817-1.498h-0.477zM9.94 31.796l0.204-0.613h0.953l0.204 0.613h0.409l-0.817-2.519h-0.409l-0.953 2.519h0.409zM10.621 29.889l0.34 0.953h-0.681l0.34-0.953zM12.868 30.774l-0.136 0.34c0 0.204 0.068 0.34 0.272 0.477 0.136 0.136 0.272 0.204 0.545 0.204 0.204 0 0.409 0 0.613-0.204l0.136 0.204h0.477l-0.34-0.477c0.136-0.136 0.204-0.409 0.204-0.681h-0.34c0 0.136 0 0.272-0.136 0.409l-0.477-0.545 0.204-0.136 0.204-0.204c0.056-0.084 0.089-0.187 0.089-0.298 0-0.149-0.060-0.284-0.157-0.383l0 0c-0.104-0.085-0.239-0.137-0.386-0.137-0.008 0-0.016 0-0.024 0l0.001-0c-0.019-0.002-0.042-0.003-0.064-0.003-0.156 0-0.299 0.052-0.414 0.14l0.002-0.001c-0.136 0.136-0.204 0.272-0.204 0.477l0.068 0.204 0.204 0.34c-0.131 0.075-0.244 0.166-0.339 0.271l-0.001 0.001zM13.957 31.319c-0.112 0.085-0.254 0.136-0.409 0.136v0l-0.272-0.068c-0.083-0.063-0.136-0.161-0.136-0.272v0c0-0.136 0.068-0.272 0.204-0.34h0.068l0.545 0.545zM13.481 30.298l-0.136-0.409v-0.204h0.477l0.068 0.204-0.068 0.204-0.272 0.204zM17.43 31.591c0.204-0.136 0.272-0.34 0.272-0.613h-0.409c0 0.204 0 0.272-0.136 0.34-0.068 0.136-0.204 0.136-0.409 0.136-0.005 0-0.011 0-0.017 0-0.161 0-0.304-0.080-0.39-0.203l-0.001-0.002-0.136-0.613v-0.204c0-0.272 0.068-0.477 0.204-0.613 0.068-0.136 0.204-0.136 0.409-0.136l0.34 0.068 0.136 0.409h0.409c0-0.272-0.068-0.477-0.272-0.681l-0.681-0.136c-0.136 0-0.34 0-0.477 0.136l-0.34 0.34c-0.087 0.175-0.139 0.381-0.139 0.599 0 0.029 0.001 0.058 0.003 0.086l-0-0.004v0.204c0 0.204 0 0.409 0.136 0.545 0.068 0.204 0.204 0.34 0.34 0.409l0.477 0.136c0.34 0 0.545-0.068 0.681-0.204zM19.949 31.251l0.068-0.681v-0.068c0-0.272 0-0.477-0.136-0.681-0.166-0.285-0.469-0.473-0.817-0.477h-0c-0.204 0-0.409 0-0.545 0.136-0.136 0.068-0.272 0.204-0.34 0.409-0.136 0.136-0.136 0.34-0.136 0.613v0.136c0 0.204 0 0.409 0.136 0.613 0 0.204 0.204 0.34 0.34 0.409l0.545 0.136c0.204 0 0.34 0 0.477-0.136 0.204-0.068 0.272-0.272 0.409-0.409zM19.472 29.889l0.136 0.613v0.136c0 0.272 0 0.477-0.136 0.613l-0.409 0.204c-0.024 0.004-0.052 0.007-0.081 0.007-0.164 0-0.309-0.083-0.395-0.209l-0.001-0.002-0.136-0.681v-0.068c0-0.272 0-0.477 0.136-0.681l0.477-0.136c0.136 0 0.272 0 0.409 0.204z"></path>
</symbol>
<symbol id="icon-linkedin" viewBox="0 0 32 32">
<path d="M32 32v-11.68c0-5.76-1.28-10.24-8-10.24-3.2 0-5.28 1.76-6.24 3.52v-3.040h-6.56v21.44h6.56v-10.56c0-2.88 0.48-5.44 4-5.44 3.36 0 3.52 3.2 3.52 5.6v10.4h6.72zM0.48 10.56h6.72v21.44h-6.72v-21.44zM3.84 0c-2.080 0-3.84 1.6-3.84 3.84 0 2.080 1.6 3.84 3.84 3.84 2.121 0 3.84-1.719 3.84-3.84s-1.719-3.84-3.84-3.84v0z"></path>
</symbol>
<symbol id="icon-facebook" viewBox="0 0 32 32">
<path d="M21.28 5.28h3.040v-5.12l-4.32-0.16c-4.16 0-7.040 2.72-7.040 7.52v4.48h-4.96v5.76h4.8v14.24h5.6v-14.4h4.48l0.8-5.6h-5.28v-3.84c0-1.6 0.48-2.88 2.72-2.88z"></path>
</symbol>
<symbol id="icon-twitter" viewBox="0 0 32 32">
<path d="M32 6.080c-1.12 0.48-2.4 0.8-3.84 0.96 1.347-0.785 2.365-2.010 2.867-3.475l0.013-0.045c-1.28 0.8-2.56 1.28-4.16 1.6-1.201-1.288-2.908-2.091-4.803-2.091-3.623 0-6.56 2.937-6.56 6.56 0 0.515 0.059 1.015 0.171 1.496l-0.009-0.044c-5.44-0.32-10.24-2.88-13.44-6.88-0.562 0.947-0.894 2.088-0.894 3.307 0 2.289 1.173 4.305 2.95 5.478l0.025 0.015c-1.117-0.011-2.163-0.306-3.072-0.817l0.032 0.017c0 3.2 2.24 5.92 5.28 6.4-0.553 0.173-1.188 0.272-1.847 0.272-0.422 0-0.835-0.041-1.234-0.119l0.040 0.007c0.96 2.72 3.2 4.64 6.24 4.64-2.212 1.759-5.047 2.822-8.129 2.822-0.575 0-1.141-0.037-1.697-0.109l0.066 0.007c2.88 1.92 6.4 2.72 10.080 2.72 0.003 0 0.007 0 0.011 0 10.25 0 18.56-8.31 18.56-18.56 0-0.225-0.004-0.449-0.012-0.672l0.001 0.032c1.44-0.96 2.4-2.080 3.36-3.36z"></path>
</symbol>
<symbol id="icon-instagram" viewBox="0 0 32 32">
<path d="M32 9.44c0-1.6-0.32-2.88-0.8-3.84-0.32-1.12-0.96-2.080-1.76-2.88-0.79-0.823-1.751-1.475-2.826-1.901l-0.054-0.019c-3.142-0.321-6.79-0.504-10.48-0.504s-7.338 0.183-10.934 0.541l0.454-0.037c-1.12 0.48-2.080 1.12-2.88 1.92-0.746 0.756-1.342 1.661-1.741 2.666l-0.019 0.054c-0.48 1.12-0.96 2.24-0.96 4.16-0.035 1.038-0.056 2.258-0.056 3.482 0 4.808 0.311 9.543 0.914 14.186l-0.058-0.548c0.418 1.059 1.014 1.964 1.761 2.721l-0.001-0.001c0.79 0.823 1.751 1.475 2.826 1.901l0.054 0.019c0.96 0.32 2.080 0.64 3.84 0.64 1.251 0.048 2.721 0.075 4.196 0.075 4.553 0 9.045-0.26 13.463-0.765l-0.54 0.050c2.227-0.846 3.954-2.573 4.781-4.744l0.019-0.056 0.64-3.84c0.173-2.39 0.272-5.179 0.272-7.99 0-1.804-0.041-3.599-0.121-5.384l0.009 0.254zM29.12 22.4c0 1.6-0.32 2.4-0.64 3.040-0.48 1.44-1.6 2.56-3.040 3.040-0.48 0.16-1.28 0.48-2.88 0.48-1.382 0.061-3.002 0.095-4.631 0.095-4.004 0-7.959-0.209-11.856-0.616l0.487 0.041c-0.688-0.254-1.276-0.635-1.76-1.12l-0-0c-0.48-0.64-0.96-1.28-1.12-1.92-0.32-0.48-0.64-1.44-0.64-3.040-0.032-1.008-0.051-2.194-0.051-3.384 0-4.389 0.251-8.718 0.739-12.976l-0.049 0.52c0.16-0.64 0.64-1.28 1.12-1.76 0.48-0.64 1.12-0.96 1.76-1.28 0.64-0.16 1.6-0.48 3.2-0.48 1.312-0.055 2.851-0.086 4.397-0.086 3.974 0 7.9 0.205 11.767 0.606l-0.484-0.041c0.8 0.32 1.44 0.64 1.92 1.28 0.48 0.48 0.96 1.12 1.12 1.76 0.32 0.64 0.48 1.44 0.64 3.040 0.116 1.913 0.182 4.149 0.182 6.4s-0.066 4.487-0.196 6.706l0.014-0.306z"></path>
<path d="M16 7.84c-0.342-0.051-0.738-0.080-1.14-0.080-4.507 0-8.16 3.653-8.16 8.16s3.653 8.16 8.16 8.16c0.402 0 0.797-0.029 1.184-0.085l-0.044 0.005c3.763-0.776 6.552-4.062 6.552-8s-2.789-7.224-6.499-7.991l-0.053-0.009zM16 21.28c-2.916 0-5.28-2.364-5.28-5.28s2.364-5.28 5.28-5.28v0c2.916 0 5.28 2.364 5.28 5.28s-2.364 5.28-5.28 5.28v0zM26.56 7.52c0 1.060-0.86 1.92-1.92 1.92s-1.92-0.86-1.92-1.92v0c0-1.060 0.86-1.92 1.92-1.92s1.92 0.86 1.92 1.92v0z"></path>
</symbol>
<symbol id="icon-astronaut" viewBox="0 0 32 32">
<path fill="#2196f3" style="fill: var(--color2, #2196f3)" d="M32 4.526c-0.091-0.183-0.274-0.32-0.457-0.366l-1.92-0.274-0.823-1.737c-0.183-0.366-0.777-0.366-0.96 0l-0.914 1.737-1.829 0.274c-0.265 0.042-0.465 0.269-0.465 0.542 0 0.144 0.055 0.275 0.146 0.372l-0-0 1.371 1.371-0.32 1.874c-0.002 0.015-0.002 0.033-0.002 0.051 0 0.303 0.246 0.549 0.549 0.549 0.084 0 0.163-0.019 0.234-0.052l-0.003 0.001 1.691-0.914 1.691 0.914c0.068 0.032 0.147 0.051 0.231 0.051 0.303 0 0.549-0.246 0.549-0.549 0-0.018-0.001-0.036-0.003-0.053l0 0.002-0.32-1.92 1.371-1.371c0.183-0.091 0.229-0.32 0.137-0.503zM29.531 5.851c-0.137 0.137-0.183 0.32-0.183 0.457l0.183 1.143-1.006-0.549c-0.067-0.032-0.146-0.050-0.229-0.050s-0.162 0.018-0.232 0.051l0.003-0.001-1.006 0.549 0.183-1.143c0-0.137 0-0.32-0.137-0.457l-0.823-0.777 1.097-0.183c0.183 0 0.32-0.137 0.457-0.274l0.457-1.006 0.503 0.96c0.091 0.137 0.229 0.274 0.411 0.274l1.097 0.183-0.777 0.777zM26.149 20.526h-1.097v1.051h1.097v-1.006zM26.149 22.674h-1.097v1.051h1.097v-1.051zM27.2 21.577h-1.051v1.097h1.051v-1.097zM25.051 21.577h-1.051v1.097h1.051v-1.097zM22.4 26.377h-1.051v1.097h1.051v-1.097zM22.4 28.526h-1.051v1.051h1.051v-1.051zM23.451 27.429h-1.051v1.097h1.051v-1.097zM21.349 27.429h-1.097v1.097h1.097v-1.097zM16 24.229h-1.051v1.097h1.051v-1.097zM16 26.377h-1.051v1.097h1.051v-1.097zM17.051 25.326h-1.051v1.051h1.051v-1.051zM14.949 25.326h-1.097v1.051h1.097v-1.051zM5.851 6.126h-1.051v1.051h1.051v-1.051zM5.851 8.229h-1.051v1.097h1.051v-1.097z"></path>
<path fill="#2196f3" style="fill: var(--color2, #2196f3)" d="M6.949 7.177h-1.097v1.097h1.097v-1.097zM4.8 7.177h-1.051v1.097h1.051v-1.097z"></path>
<path fill="#212121" style="fill: var(--color3, #212121)" d="M24.686 14.171c-0.266-0.377-0.668-0.643-1.132-0.73l-0.011-0.002c-0.457-0.046-0.96 0.091-1.371 0.366l-1.234 0.96-1.92 1.417-1.371-0.549c2.403-1.128 4.037-3.528 4.037-6.309 0-3.81-3.067-6.904-6.867-6.948l-0.004-0c-3.818 0.025-6.904 3.127-6.904 6.948 0 1.392 0.409 2.689 1.114 3.776l-0.016-0.027h-3.063l-3.2 1.646-1.92 0.914h-0.091c-0.524 0.317-0.869 0.884-0.869 1.531 0 0.985 0.799 1.784 1.784 1.784 0.338 0 0.653-0.094 0.922-0.257l-0.008 0.004 1.371-0.731 2.286-1.143h1.371l-5.394 5.349-1.371 1.371c-0.286 0.296-0.462 0.699-0.462 1.143s0.176 0.847 0.462 1.143l-0-0c0.3 0.313 0.722 0.507 1.189 0.507s0.889-0.194 1.188-0.507l0.001-0.001 1.371-1.28 1.691-1.28 0.914 0.914-1.783 1.737-1.28 1.371c-0.299 0.298-0.484 0.71-0.484 1.166s0.185 0.868 0.484 1.166l0 0c0.305 0.302 0.725 0.488 1.189 0.488s0.883-0.186 1.189-0.488l3.428-3.428 1.006-0.96 5.166-5.714 3.474 0.503c0.041 0.012 0.088 0.019 0.137 0.019s0.096-0.007 0.141-0.020l-0.004 0.001 0.046-0.046h0.046l3.2-2.149 0.046-0.046h0.046l1.28-1.234c0.345-0.326 0.559-0.786 0.559-1.297 0-0.388-0.124-0.747-0.334-1.040l0.004 0.005zM2.194 17.783c-0.183 0.091-0.366 0.091-0.594 0-0.264-0.114-0.445-0.373-0.445-0.673 0-0.225 0.101-0.426 0.261-0.56l0.001-0.001 1.28-0.64 0.32 0.914 0.137 0.457-0.96 0.457zM5.669 15.954l-1.554 0.777-0.274-0.731-0.183-0.549 2.011-1.006v1.554zM20.754 9.326c0 0.914-0.183 1.783-0.594 2.56l-4.16-1.92c-0.041-0.569-0.336-1.061-0.771-1.368l-0.006-0.004 1.463-4.846c2.377 0.731 4.114 2.971 4.114 5.577zM9.006 9.326c0.032-3.232 2.66-5.841 5.897-5.841 0.226 0 0.448 0.013 0.667 0.037l-0.027-0.002-1.417 4.709c-0.027-0.001-0.059-0.002-0.091-0.002-1.010 0-1.829 0.819-1.829 1.829 0 0.001 0 0.002 0 0.002v-0c-0.013 0.081-0.020 0.175-0.020 0.271 0 1.010 0.819 1.829 1.829 1.829 0.779 0 1.444-0.487 1.707-1.172l0.004-0.012 3.84 1.783c-1.088 1.432-2.791 2.347-4.709 2.347-3.23 0-5.854-2.597-5.897-5.818l-0-0.004zM14.949 10.103c0 0.457-0.366 0.823-0.823 0.823s-0.777-0.366-0.777-0.823 0.32-0.777 0.777-0.777 0.823 0.366 0.823 0.777zM2.514 25.189c-0.229 0.183-0.64 0.183-0.869 0-0.131-0.11-0.215-0.274-0.215-0.457s0.083-0.347 0.214-0.456l0.001-0.001 0.96-0.914 0.869 0.823-1.006 0.96zM5.714 28.846c-0.229 0.274-0.594 0.274-0.823 0-0.102-0.107-0.165-0.252-0.165-0.411s0.063-0.305 0.166-0.412l0.914-0.914 0.457 0.366 0.457 0.457-1.006 0.914zM9.189 25.417l-1.737 1.737-0.457-0.366-0.411-0.457 1.783-1.783 0.091-0.137v-0.183l0.046-0.091v-0.183l-0.137-0.137v-0.046l-1.6-1.6h-0.091l-0.091-0.091h-0.091l-0.091-0.046h-0.183l-0.091 0.046h-0.183l-1.737 1.371-0.914-0.914 2.377-2.377 4.389 4.297-0.914 0.914zM16.046 18.377h-0.046c-0.019-0.002-0.040-0.004-0.062-0.004-0.136 0-0.259 0.054-0.349 0.141l0-0v0.046l-4.8 5.211-4.343-4.251 2.834-2.834c0.088-0.097 0.141-0.226 0.141-0.367 0-0.288-0.222-0.525-0.505-0.547l-0.002-0h-2.24v-1.6h3.109c1.266 1.312 3.039 2.127 5.003 2.127 0.445 0 0.881-0.042 1.303-0.122l-0.043 0.007 0.137 0.091 2.423 0.914 0.137 0.777 0.183 0.914-2.971-0.457zM20.069 18.56l-0.32-1.554 1.463-1.051 0.366 0.457 0.549 0.777-2.057 1.371zM23.817 15.726l-0.823 0.823-0.914-1.28 0.823-0.594c0.137-0.137 0.32-0.183 0.503-0.183 0.372 0.037 0.661 0.349 0.661 0.728 0 0.197-0.078 0.375-0.204 0.507l0-0z"></path>
<path fill="#212121" style="fill: var(--color3, #212121)" d="M13.623 18.56l-2.194-2.149c-0.229-0.229-0.549-0.229-0.777 0l-2.149 2.149c-0.087 0.097-0.14 0.225-0.14 0.366s0.053 0.269 0.14 0.366l-0-0 2.149 2.149c0.099 0.1 0.237 0.161 0.389 0.161s0.289-0.062 0.389-0.161v0l2.149-2.149c0.087-0.097 0.14-0.225 0.14-0.366s-0.053-0.269-0.14-0.366l0 0zM11.063 20.297l-1.371-1.371 1.371-1.371 1.371 1.371-1.371 1.371zM17.143 5.029l-0.229 1.097c0.046 0 1.737 0.457 1.737 2.149h1.006c0-2.057-1.646-2.971-2.56-3.2zM19.703 9.326h-1.051v1.051h1.006v-1.051z"></path>
</symbol>
<symbol id="icon-diagram" viewBox="0 0 32 32">
<path fill="#2196f3" style="fill: var(--color2, #2196f3)" d="M14.903 14.949h1.097v4.8h-1.097v-4.8zM19.2 17.097h1.051v2.651h-1.051v-2.651zM10.651 18.697h1.097v1.051h-1.097v-1.006zM7.451 18.149h1.097v1.6h-1.097v-1.6z"></path>
<path fill="#212121" style="fill: var(--color3, #212121)" d="M1.6 28.297h25.6c0.869 0 1.6-0.731 1.6-1.6v-2.149c0-0.914-0.731-1.6-1.6-1.6h-0.549v-13.257l3.017-2.88c0.213 0.112 0.465 0.178 0.733 0.178 0.884 0 1.6-0.716 1.6-1.6s-0.716-1.6-1.6-1.6c-0.884 0-1.6 0.716-1.6 1.6 0 0.234 0.050 0.455 0.14 0.655l-0.004-0.010-2.286 2.149v-1.234c0-0.869-0.731-1.6-1.6-1.6h-21.303c-0.914 0-1.6 0.731-1.6 1.6v16h-0.549c-0.914 0-1.6 0.731-1.6 1.6v2.149c0 0.914 0.731 1.6 1.6 1.6zM30.4 4.846c0.047-0.014 0.101-0.023 0.157-0.023 0.303 0 0.549 0.246 0.549 0.549s-0.246 0.549-0.549 0.549c-0.056 0-0.11-0.008-0.161-0.024l0.004 0.001c-0.229-0.070-0.392-0.279-0.392-0.526s0.163-0.456 0.388-0.525l0.004-0.001zM3.2 6.949c0-0.274 0.229-0.503 0.549-0.503h21.303c0.274 0 0.549 0.229 0.549 0.503v2.286l-1.097 1.006v-2.194c0-0.32-0.229-0.549-0.503-0.549h-19.2c-0.274 0-0.549 0.229-0.549 0.549v13.303c0 0.32 0.274 0.549 0.549 0.549h19.2c0.274 0 0.503-0.229 0.503-0.549v-9.646l1.097-1.006v12.251h-22.4v-16zM8 13.897c-0.007-0-0.015-0-0.022-0-0.884 0-1.6 0.716-1.6 1.6s0.716 1.6 1.6 1.6c0.436 0 0.831-0.174 1.12-0.457l-0 0 1.829 0.914c0.229 0.137 0.503 0.091 0.686-0.091l3.931-4.434 3.84 2.88c0.229 0.183 0.503 0.137 0.686 0l3.383-3.2v8.137h-18.103v-12.297h18.103v2.697l-3.749 3.566-3.931-2.926c-0.229-0.183-0.549-0.137-0.731 0.046l-3.977 4.526-1.463-0.777v-0.137c0-0.914-0.686-1.6-1.554-1.6zM8.549 15.497c0 0.303-0.246 0.549-0.549 0.549s-0.549-0.246-0.549-0.549v0c0-0.303 0.246-0.549 0.549-0.549s0.549 0.246 0.549 0.549v0zM11.749 24.046h5.303v0.503c0 0.32-0.229 0.549-0.549 0.549h-4.251c-0.274 0-0.503-0.229-0.503-0.549v-0.503zM1.051 24.549c0-0.274 0.274-0.503 0.549-0.503h9.051v0.503c0 0.914 0.731 1.6 1.6 1.6h4.251c0.914 0 1.6-0.686 1.6-1.6v-0.503h9.097c0.274 0 0.503 0.229 0.503 0.503v2.149c0 0.274-0.229 0.549-0.503 0.549h-25.6c-0.274 0-0.549-0.274-0.549-0.549v-2.149z"></path>
</symbol>
<symbol id="icon-clock" viewBox="0 0 32 32">
<path fill="#212121" style="fill: var(--color3, #212121)" d="M31.314 15.314c0-0.005 0-0.010 0-0.016 0-8.458-6.856-15.314-15.314-15.314s-15.314 6.856-15.314 15.314c0 6.859 4.51 12.665 10.726 14.615l0.108 0.029c0.137 0 0.229-0.046 0.366-0.137 0.137-0.046 0.229-0.183 0.274-0.366l3.84-12.206c1.058-0.003 1.915-0.861 1.915-1.92 0-1.060-0.86-1.92-1.92-1.92-0.297 0-0.578 0.067-0.829 0.188l0.012-0.005-5.12-5.12c-0.117-0.117-0.279-0.189-0.457-0.189-0.357 0-0.646 0.289-0.646 0.646 0 0.179 0.072 0.34 0.189 0.457l5.12 5.12c-0.114 0.235-0.18 0.511-0.18 0.802 0 0.602 0.284 1.137 0.725 1.48l0.004 0.003-3.657 11.703c-5.431-2.020-9.229-7.159-9.229-13.186 0-7.751 6.283-14.034 14.034-14.034s14.034 6.283 14.034 14.034c0 5.684-3.379 10.578-8.237 12.785l-0.088 0.036-0.366-1.874c-0.057-0.3-0.317-0.524-0.63-0.524-0.162 0-0.31 0.060-0.423 0.159l0.001-0.001-3.84 3.429c-0.137 0.118-0.223 0.292-0.223 0.485 0 0.286 0.188 0.529 0.447 0.61l0.005 0.001 4.891 1.6c0.058 0.019 0.125 0.030 0.195 0.030 0.353 0 0.64-0.287 0.64-0.64 0-0.043-0.004-0.085-0.012-0.126l0.001 0.004-0.366-1.829c5.527-2.379 9.326-7.778 9.326-14.065 0-0.005 0-0.011 0-0.016v0.001zM16 14.629c0.353 0 0.64 0.287 0.64 0.64s-0.287 0.64-0.64 0.64v0c-0.353 0-0.64-0.287-0.64-0.64s0.287-0.64 0.64-0.64v0zM18.103 29.486l2.194-1.966 0.594 2.834-2.789-0.914z"></path>
<path fill="#2196f3" style="fill: var(--color2, #2196f3)" d="M15.36 3.2v1.28c0 0.353 0.287 0.64 0.64 0.64s0.64-0.287 0.64-0.64v-1.28c0-0.353-0.287-0.64-0.64-0.64s-0.64 0.287-0.64 0.64v0zM3.886 14.629c-0.366 0-0.663 0.297-0.663 0.663s0.297 0.663 0.663 0.663h1.28c0.353 0 0.64-0.287 0.64-0.64s-0.287-0.64-0.64-0.64h-1.28zM28.114 15.954c0.353 0 0.64-0.287 0.64-0.64s-0.287-0.64-0.64-0.64h-1.28c-0.353 0-0.64 0.287-0.64 0.64s0.287 0.64 0.64 0.64h1.28z"></path>
</symbol>
<symbol id="icon-antenna" viewBox="0 0 32 32">
<path fill="#212121" style="fill: var(--color3, #212121)" d="M30.766 22.080l-8.457-8.503 0.96-4.571c0.229 0.046 0.457 0.137 0.777 0.137 0.007 0 0.016 0 0.025 0 1.187 0 2.149-0.962 2.149-2.149s-0.962-2.149-2.149-2.149c-1.187 0-2.149 0.962-2.149 2.149 0 0.245 0.041 0.481 0.117 0.701l-0.005-0.015-4.983 0.594-8.091-8.137c-0.091-0.091-0.229-0.137-0.366-0.137s-0.274 0.046-0.366 0.137l-1.509 1.509c-0.229 0.229-0.229 0.549 0 0.777l0.823 0.777c-1.129 2.053-1.794 4.499-1.794 7.1 0 4.161 1.7 7.925 4.444 10.635l0.002 0.002-0.046 0.549v6.217h-6.4c-0.014-0-0.030-0-0.046-0-1.464 0-2.651 1.187-2.651 2.651 0 0 0 0 0 0v-0 1.051c0 0.32 0.274 0.549 0.549 0.549h24.549c0.274 0 0.503-0.229 0.503-0.549v-1.051c0-1.463-1.189-2.651-2.651-2.651h-6.4v-2.743c0.899 0.191 1.932 0.3 2.991 0.3 2.586 0 5.020-0.653 7.146-1.803l-0.080 0.039 0.869 0.823c0.091 0.091 0.229 0.137 0.366 0.137s0.274-0.046 0.366-0.137l1.509-1.509c0.229-0.229 0.229-0.549 0-0.777zM23.314 6.217c0.186-0.169 0.434-0.272 0.706-0.272 0.581 0 1.051 0.471 1.051 1.051 0 0.555-0.431 1.010-0.976 1.049l-0.003 0c-0.021 0.002-0.046 0.002-0.072 0.002-0.581 0-1.051-0.471-1.051-1.051 0-0.309 0.133-0.586 0.345-0.779l0.001-0.001zM22.080 9.737l-0.594 2.926-1.189-1.143 1.783-1.783zM21.486 8.823l-1.92 1.92-1.509-1.509 3.429-0.411zM24 28.8c0.914 0 1.6 0.731 1.6 1.6v0.549h-23.451v-0.549c0-0.914 0.686-1.6 1.6-1.6h20.251zM16.549 26.651v1.097h-5.349v-1.097h5.349zM11.2 25.6v-4.069c0-1.28 1.189-2.331 2.651-2.331 1.509 0 2.697 1.051 2.697 2.331v4.069h-5.349zM17.6 23.909v-2.423c0-1.829-1.691-3.383-3.749-3.383-1.326 0-2.56 0.64-3.246 1.783-2.369-2.481-3.827-5.85-3.827-9.559 0-2.319 0.57-4.505 1.578-6.426l-0.036 0.076 18.606 18.743c-1.816 0.94-3.965 1.492-6.242 1.492-1.093 0-2.157-0.127-3.177-0.367l0.094 0.019zM28.891 23.223l-0.731-0.823-19.566-19.657-0.823-0.686 0.777-0.777 7.909 8 13.257 13.12-0.777 0.777z"></path>
<path fill="#2196f3" style="fill: var(--color2, #2196f3)" d="M13.897 20.251c-0.884 0-1.6 0.716-1.6 1.6s0.716 1.6 1.6 1.6v0c0.884 0 1.6-0.716 1.6-1.6s-0.716-1.6-1.6-1.6v0zM14.263 22.263c-0.101 0.112-0.247 0.183-0.409 0.183-0.303 0-0.549-0.246-0.549-0.549s0.244-0.547 0.546-0.549h0c0.001 0 0.002 0 0.003 0 0.303 0 0.549 0.246 0.549 0.549 0 0.141-0.053 0.269-0.14 0.366l0-0z"></path>
</symbol>
<symbol id="icon-smartphone" viewBox="0 0 32 32">
<path d="M23 0h-14c-1.6 0-3 1.4-3 3v26c0 1.6 1.4 3 3 3h14c1.6 0 3-1.4 3-3v-26c0-1.6-1.4-3-3-3zM9 2h14c0.6 0 1 0.4 1 1v21h-16v-21c0-0.6 0.4-1 1-1zM23 30h-14c-0.552 0-1-0.448-1-1v0-3h16v3c0 0.6-0.4 1-1 1z"></path>
<path d="M10.8 27.4v1.4c-0.4 0.4-1.2 0.4-1.6 0-0.248-0.139-0.413-0.4-0.413-0.7s0.165-0.561 0.409-0.698l0.004-0.002c0.4-0.2 1.2-0.2 1.6 0z"></path>
</symbol>
<symbol id="icon-envelope" viewBox="0 0 32 32">
<path d="M29 4h-26c-1.6 0-3 1.4-3 3v18c0 1.6 1.4 3 3 3h26c1.6 0 3-1.4 3-3v-18c0-1.6-1.4-3-3-3zM29 6h0.4l-13.4 11.6-13.4-11.6h26.4zM29 26h-26c-0.552 0-1-0.448-1-1v0-16.8l13.4 11.6c0.165 0.125 0.374 0.2 0.6 0.2s0.435-0.075 0.602-0.202l-0.003 0.002 13.4-11.8v16.8c0 0.6-0.4 1-1 1z"></path>
</symbol>
</defs>
</svg>
